<?xml version="1.0" encoding="UTF-8"?>
<svg id="Vrstva_2" data-name="Vrstva 2" xmlns="http://www.w3.org/2000/svg" viewBox="0 0 629.48 514.22">
  <defs>
    <style>
      .cls-1 {
        fill: #e3c68c;
      }

      .cls-2 {
        fill: #e3c78d;
      }
    </style>
  </defs>
  <g id="Vrstva_1-2" data-name="Vrstva 1">
    <g>
      <g>
        <path class="cls-1" d="M85.95,303.36c-1.17-3.5-2.79-6.71-4.82-9.54-2.02-2.81-4.41-5.45-7.11-7.84-2.51-2.23-5.23-4.3-8.07-6.16,1.79-1.52,3.56-3.35,5.3-5.48,1.9-2.33,3.6-4.84,5.07-7.47,1.47-2.63,2.65-5.33,3.51-8.04.86-2.72,1.3-5.41,1.3-8,0-4.67-.81-8.77-2.42-12.18-1.61-3.4-3.84-6.26-6.62-8.49-2.78-2.22-6.12-3.88-9.95-4.93-3.81-1.04-7.91-1.57-12.18-1.57H4.16v123.72h53.09c9.71,0,17.32-2.6,22.63-7.72,5.31-5.13,7.94-13.45,7.82-24.74,0-4.17-.59-8.06-1.76-11.57ZM55.55,259.99c-1.99,3.45-4.87,6.68-8.58,9.62-3.44-1.65-6.85-3.21-10.15-4.62-3.29-1.41-6.32-2.94-9.01-4.57v-16.2h14.84c2.01,0,3.98-.03,5.86-.09,1.9-.06,3.64.09,5.17.44,1.46.34,2.66,1.08,3.56,2.2.9,1.12,1.35,2.92,1.35,5.35,0,1.73-1.02,4.38-3.04,7.88ZM27.81,284.6c1.57.58,3.45,1.32,5.61,2.21,2.47,1.03,5.1,2.25,7.82,3.64,2.71,1.38,5.46,2.97,8.17,4.72,2.71,1.74,5.17,3.63,7.33,5.61,2.14,1.96,3.89,4.13,5.2,6.45,1.29,2.29,1.94,4.69,1.94,7.15,0,3.78-.62,6.6-1.83,8.39-1.21,1.79-2.67,3.02-4.33,3.65-1.7.64-3.47.94-5.29.88-1.95-.06-3.6-.09-5.04-.09h-19.59v-42.61Z"/>
        <path class="cls-1" d="M197.35,260.04c-1.77-7.69-4.62-14.71-8.46-20.88-3.86-6.18-8.86-11.27-14.85-15.13-6.02-3.87-13.23-5.89-21.45-6.01h-.02c-8.34.25-15.52,2.36-21.36,6.29-5.82,3.92-10.63,9.01-14.3,15.13-3.67,6.11-6.42,13.04-8.18,20.6-1.77,7.55-2.66,15.21-2.66,22.76s.83,15.29,2.48,23.02c1.65,7.75,4.37,14.87,8.09,21.15,3.73,6.31,8.6,11.52,14.49,15.5,5.9,4,13.12,6.02,21.46,6.02s15.41-2.03,21.37-6.02c5.93-3.97,10.84-9.16,14.58-15.41,3.72-6.23,6.54-13.28,8.37-20.96,1.83-7.67,2.81-15.38,2.94-22.93.12-7.67-.71-15.46-2.48-23.13ZM177.28,282.8c0,4.1-.28,8.88-.82,14.19-.54,5.28-1.7,10.37-3.44,15.13-1.73,4.71-4.3,8.74-7.64,11.96-3.3,3.18-7.73,4.79-13.17,4.79-5.07,0-9.19-1.61-12.24-4.78-3.1-3.22-5.56-7.25-7.29-11.97-1.74-4.74-2.9-9.83-3.44-15.13-.54-5.31-.82-10.09-.82-14.19s.31-8.89.91-14.19c.6-5.29,1.79-10.28,3.53-14.85,1.73-4.54,4.21-8.44,7.37-11.6,3.11-3.11,7.27-4.69,12.34-4.69,4.71,0,8.67,1.58,11.79,4.69,3.17,3.17,5.74,7.08,7.65,11.62,1.92,4.57,3.29,9.57,4.08,14.85.78,5.31,1.18,10.08,1.18,14.17Z"/>
        <polygon class="cls-1" points="216.73 223.68 216.73 244.22 242.29 244.22 242.29 347.39 265.21 347.39 265.21 244.22 290.77 244.22 290.77 223.68 216.73 223.68"/>
        <polygon class="cls-1" points="306.21 223.68 306.21 244.22 331.77 244.22 331.77 347.39 354.69 347.39 354.69 244.22 380.25 244.22 380.25 223.68 306.21 223.68"/>
        <path class="cls-1" d="M486.98,260.04c-1.77-7.69-4.62-14.71-8.46-20.88-3.86-6.18-8.86-11.27-14.85-15.13-6.02-3.87-13.23-5.89-21.45-6.01h-.02c-8.34.25-15.52,2.36-21.36,6.29-5.82,3.92-10.63,9.01-14.3,15.13-3.67,6.11-6.42,13.04-8.18,20.6-1.77,7.55-2.66,15.21-2.66,22.76s.83,15.29,2.48,23.02c1.65,7.75,4.37,14.87,8.09,21.15,3.73,6.31,8.6,11.52,14.49,15.5,5.9,4,13.12,6.02,21.46,6.02s15.41-2.03,21.37-6.02c5.93-3.97,10.84-9.16,14.58-15.41,3.72-6.23,6.54-13.28,8.37-20.96,1.83-7.67,2.81-15.38,2.94-22.93.12-7.67-.71-15.46-2.48-23.13ZM466.91,282.8c0,4.1-.28,8.88-.82,14.19-.54,5.28-1.7,10.37-3.44,15.13-1.73,4.71-4.3,8.74-7.64,11.96-3.3,3.18-7.73,4.79-13.17,4.79-5.07,0-9.19-1.61-12.24-4.78-3.1-3.22-5.56-7.25-7.29-11.97-1.74-4.74-2.9-9.83-3.44-15.13-.54-5.31-.82-10.09-.82-14.19s.31-8.89.91-14.19c.6-5.29,1.79-10.28,3.53-14.85,1.73-4.54,4.21-8.44,7.37-11.6,3.11-3.11,7.27-4.69,12.34-4.69,4.71,0,8.67,1.58,11.79,4.69,3.17,3.17,5.74,7.08,7.65,11.62,1.92,4.57,3.29,9.57,4.08,14.85.78,5.31,1.18,10.08,1.18,14.17Z"/>
        <path class="cls-1" d="M602.12,224.09l-.07-.41h-17.36l-.13.29c-3.46,7.4-6.87,14.65-10.13,21.55-3.18,6.71-6.44,13.74-9.68,20.9-3.12-7.15-6.32-14.21-9.51-20.99-3.35-7.12-6.73-14.27-10.14-21.46l-.14-.29h-17.35l-21.91,123.72h20.16l.15-.15c.15-.15.29-.29.96-3.54.42-2.07.97-4.62,1.64-7.66.67-3.04,1.4-6.36,2.19-9.95.79-3.59,1.52-7,2.19-10.23.66-3.2,1.22-6.03,1.65-8.41.42-2.37.7-3.85.82-4.48,1.1-7.06,2.04-13.12,2.83-18.17.78-5,1.4-9.25,1.83-12.61l1-7.95c.11-.86.19-1.61.25-2.28l12.47,29.21c1.68,5.39,2.35,10.46,1.99,15.06-.36,4.59-1.93,9.15-4.67,13.56l-.49.79.92-.02c5.2-.12,9.15-.12,11.74,0,2.58.12,5.02.18,7.24.18h.27l.15-.23c2.83-4.43,4.57-9.32,5.19-14.55.6-5.14.43-10.09-.52-14.71l12.61-29.31c.06.68.14,1.44.25,2.29.24,1.95.58,4.6,1,7.94.43,3.38,1.04,7.63,1.83,12.61.79,5.05,1.73,11.11,2.83,18.19.12.61.39,2.1.82,4.47.43,2.38.98,5.21,1.65,8.41.67,3.23,1.41,6.67,2.19,10.23l2.19,9.95c.67,3.04,1.21,5.6,1.64,7.66.67,3.26.81,3.4.96,3.54l.15.14h20.16l-21.84-123.31Z"/>
      </g>
      <g>
        <polygon class="cls-1" points="130.06 120.05 130.06 134.33 147.43 134.33 147.43 204.44 163.32 204.44 163.32 134.33 180.7 134.33 180.7 120.05 130.06 120.05"/>
        <path class="cls-1" d="M253.22,144.88c-1.21-5.24-3.15-10.03-5.77-14.24-2.63-4.22-6.05-7.7-10.14-10.33-4.11-2.64-9.05-4.03-14.66-4.11h-.02c-5.7.17-10.61,1.62-14.6,4.3-3.97,2.68-7.26,6.15-9.77,10.33-2.5,4.17-4.38,8.89-5.58,14.04-1.2,5.14-1.81,10.36-1.81,15.5s.57,10.42,1.69,15.68c1.12,5.29,2.98,10.14,5.52,14.42,2.55,4.31,5.88,7.87,9.89,10.58,4.04,2.73,8.97,4.12,14.68,4.12s10.53-1.39,14.61-4.12c4.05-2.71,7.4-6.25,9.95-10.52,2.54-4.25,4.46-9.05,5.7-14.29,1.24-5.22,1.92-10.48,2-15.62.08-5.23-.49-10.53-1.69-15.76ZM239.26,160.38c0,2.79-.19,6.02-.56,9.63-.37,3.58-1.15,7.02-2.33,10.24-1.17,3.18-2.9,5.89-5.15,8.07-2.21,2.13-5.18,3.21-8.84,3.21-3.4,0-6.16-1.08-8.2-3.2-2.09-2.17-3.75-4.89-4.92-8.08-1.18-3.21-1.96-6.66-2.33-10.24-.37-3.6-.56-6.84-.56-9.63s.21-6.03.62-9.62c.41-3.58,1.21-6.96,2.39-10.05,1.17-3.06,2.84-5.7,4.97-7.83s4.87-3.14,8.27-3.14c3.15,0,5.81,1.06,7.9,3.14,2.14,2.14,3.87,4.78,5.17,7.84,1.3,3.09,2.23,6.47,2.76,10.06.53,3.6.8,6.84.8,9.61Z"/>
        <polygon class="cls-1" points="288.16 120.05 288.16 134.33 305.53 134.33 305.53 204.44 321.42 204.44 321.42 134.33 338.8 134.33 338.8 120.05 288.16 120.05"/>
        <polygon class="cls-1" points="392.03 120.05 392.03 143.87 367.09 143.87 367.09 120.05 351.2 120.05 351.2 204.44 367.09 204.44 367.09 157.66 392.03 157.66 392.03 204.44 407.92 204.44 407.92 120.05 392.03 120.05"/>
        <polygon class="cls-1" points="468.23 134.33 468.23 120.05 421.69 120.05 421.69 204.44 468.23 204.44 468.23 190.16 437.58 190.16 437.58 157.66 464.76 157.66 464.76 143.87 437.58 143.87 437.58 134.33 468.23 134.33"/>
      </g>
      <g>
        <path class="cls-2" d="M9.73,370.02h4.1l9.79,22.51h-5.6l-1.94-4.77H7.34l-1.88,4.77H0l9.73-22.51ZM11.64,376.57l-2.73,6.99h5.5l-2.77-6.99Z"/>
        <path class="cls-2" d="M50.9,391.22c0,2.93-.74,5.15-2.21,6.66-1.47,1.52-3.71,2.27-6.72,2.27-1.38,0-2.73-.15-4.07-.46-1.34-.31-2.56-.91-3.69-1.8l2.64-3.94c.74.61,1.52,1.1,2.34,1.46.82.36,1.71.54,2.69.54,1.46,0,2.54-.35,3.23-1.06.69-.71,1.03-1.62,1.03-2.72v-1.49h-.06c-.55.74-1.23,1.27-2.05,1.57-.82.31-1.58.46-2.31.46-1.14,0-2.18-.2-3.12-.59-.93-.39-1.73-.94-2.4-1.65-.67-.71-1.18-1.55-1.54-2.53-.36-.98-.54-2.05-.54-3.21,0-1.02.16-2.01.49-2.99.33-.97.79-1.83,1.4-2.58.6-.74,1.34-1.34,2.21-1.8.87-.46,1.85-.68,2.96-.68.68,0,1.3.07,1.86.22.56.15,1.06.34,1.51.57.44.23.83.49,1.14.78s.57.57.76.84h.06v-2.04h4.39v14.15ZM38.88,384.71c0,.51.1.99.29,1.45.19.46.46.86.81,1.21.35.35.75.63,1.21.84.46.21.96.32,1.51.32s1.03-.11,1.49-.32c.47-.21.87-.49,1.22-.84s.62-.75.81-1.21c.19-.46.29-.94.29-1.45s-.1-.99-.29-1.45c-.19-.46-.46-.86-.81-1.21s-.76-.63-1.22-.84c-.47-.21-.96-.32-1.49-.32s-1.05.11-1.51.32c-.46.21-.86.49-1.21.84-.35.35-.62.75-.81,1.21-.19.46-.29.94-.29,1.45Z"/>
        <path class="cls-2" d="M64.41,390.59h-.06c-.53.83-1.24,1.42-2.11,1.78-.88.36-1.81.54-2.78.54-.72,0-1.41-.1-2.08-.3-.67-.2-1.26-.5-1.76-.91-.51-.4-.91-.9-1.21-1.49-.3-.59-.45-1.28-.45-2.07,0-.89.16-1.64.49-2.26.33-.61.77-1.12,1.33-1.53s1.2-.72,1.92-.94c.72-.22,1.47-.39,2.24-.49.77-.11,1.55-.17,2.32-.19.77-.02,1.49-.03,2.15-.03,0-.85-.3-1.52-.91-2.02s-1.32-.75-2.15-.75c-.78,0-1.5.16-2.15.49-.65.33-1.22.78-1.73,1.35l-2.54-2.61c.89-.83,1.93-1.45,3.12-1.86,1.19-.41,2.42-.62,3.69-.62,1.4,0,2.55.17,3.45.52.9.35,1.62.86,2.16,1.54.54.68.92,1.51,1.13,2.5.21.99.32,2.12.32,3.42v7.85h-4.39v-1.94ZM63.24,385.76c-.36,0-.81.02-1.35.05s-1.06.12-1.56.27c-.5.15-.92.37-1.27.67-.35.3-.52.71-.52,1.24,0,.57.24,1,.73,1.27.49.28,1,.41,1.53.41.47,0,.92-.06,1.35-.19s.82-.31,1.16-.54c.34-.23.61-.53.81-.89.2-.36.3-.78.3-1.27v-1.02h-1.18Z"/>
        <path class="cls-2" d="M71.79,377.08h4.58v2.1h.06c.15-.3.36-.59.64-.89.28-.3.6-.56.99-.79.38-.23.82-.42,1.3-.57.49-.15,1.02-.22,1.59-.22,1.08,0,2.04.22,2.88.67.84.45,1.47,1.14,1.89,2.1.55-1,1.22-1.71,2-2.13.78-.42,1.75-.64,2.89-.64,1.04,0,1.91.17,2.62.52.71.35,1.27.83,1.69,1.43.41.6.71,1.31.89,2.13.18.82.27,1.69.27,2.62v9.12h-4.77v-9c0-.72-.15-1.34-.46-1.86-.31-.52-.85-.78-1.64-.78-.55,0-1.01.09-1.38.27-.37.18-.67.43-.89.75s-.38.69-.48,1.11c-.1.42-.14.87-.14,1.34v8.17h-4.77v-8.17c0-.28-.01-.61-.03-1.02-.02-.4-.1-.78-.22-1.14-.13-.36-.33-.67-.62-.92-.29-.25-.71-.38-1.26-.38-.62,0-1.11.11-1.49.33-.38.22-.67.52-.87.89-.2.37-.33.79-.4,1.26-.06.47-.1.95-.1,1.46v7.69h-4.77v-15.45Z"/>
        <path class="cls-2" d="M114.08,389.86c-.76.98-1.73,1.73-2.89,2.26-1.17.53-2.37.79-3.62.79s-2.31-.19-3.35-.57c-1.05-.38-1.96-.93-2.73-1.64-.77-.71-1.38-1.56-1.83-2.56-.45-1-.67-2.11-.67-3.34s.22-2.34.67-3.34c.44-1,1.05-1.85,1.83-2.56.77-.71,1.69-1.26,2.73-1.64,1.05-.38,2.17-.57,3.35-.57,1.1,0,2.1.19,3,.57.9.38,1.66.93,2.29,1.64.62.71,1.11,1.56,1.45,2.56.34,1,.51,2.11.51,3.34v1.49h-11.06c.19.91.6,1.64,1.24,2.18s1.42.81,2.35.81c.78,0,1.45-.17,1.99-.52s1.01-.8,1.42-1.35l3.34,2.45ZM110.04,383.05c.02-.81-.24-1.49-.79-2.07s-1.26-.86-2.13-.86c-.53,0-1,.08-1.4.25-.4.17-.75.39-1.03.65-.29.27-.51.57-.67.92-.16.35-.25.72-.27,1.1h6.29Z"/>
        <path class="cls-2" d="M126.54,384.8c0-1.23.22-2.34.67-3.34.45-1,1.05-1.85,1.83-2.56.77-.71,1.69-1.26,2.73-1.64,1.05-.38,2.17-.57,3.35-.57s2.31.19,3.35.57c1.05.38,1.96.93,2.73,1.64.77.71,1.38,1.56,1.83,2.56.45,1,.67,2.11.67,3.34s-.22,2.34-.67,3.34c-.44,1-1.05,1.85-1.83,2.56-.77.71-1.69,1.26-2.73,1.64-1.05.38-2.17.57-3.35.57s-2.31-.19-3.35-.57c-1.05-.38-1.96-.93-2.73-1.64-.77-.71-1.38-1.56-1.83-2.56-.44-1-.67-2.11-.67-3.34ZM131.31,384.8c0,1.17.33,2.11,1,2.83.67.72,1.61,1.08,2.81,1.08s2.15-.36,2.81-1.08c.67-.72,1-1.66,1-2.83s-.33-2.11-1-2.83c-.67-.72-1.61-1.08-2.81-1.08s-2.15.36-2.81,1.08c-.67.72-1,1.66-1,2.83Z"/>
        <path class="cls-2" d="M148.16,380.89h-3.15v-3.82h3.15v-2.73c0-.85.07-1.65.22-2.4.15-.75.43-1.41.86-1.99.42-.57,1.03-1.02,1.83-1.35.79-.33,1.84-.49,3.13-.49.49,0,.96.02,1.43.06.47.04.92.12,1.37.22l-.22,4.04c-.28-.11-.53-.19-.76-.24-.23-.05-.5-.08-.79-.08-.76,0-1.33.16-1.72.49-.38.33-.57,1-.57,2.02v2.45h3.53v3.82h-3.53v11.64h-4.77v-11.64Z"/>
        <path class="cls-2" d="M176.42,381.62c-.7-.87-1.62-1.3-2.77-1.3-.4,0-.79.1-1.18.29-.38.19-.57.52-.57.99,0,.38.2.66.59.84.39.18.89.34,1.49.48.6.14,1.25.29,1.94.44.69.16,1.34.41,1.94.75.6.34,1.1.8,1.49,1.38.39.58.59,1.36.59,2.34s-.22,1.82-.65,2.46c-.43.65-.99,1.17-1.67,1.56-.68.39-1.44.67-2.29.83-.85.16-1.69.24-2.51.24-1.08,0-2.17-.15-3.27-.46-1.1-.31-2.04-.85-2.8-1.64l2.89-3.21c.45.55.94.97,1.48,1.26s1.17.43,1.89.43c.55,0,1.05-.08,1.49-.24.44-.16.67-.45.67-.87,0-.4-.2-.7-.59-.91s-.89-.37-1.49-.51c-.6-.14-1.25-.29-1.94-.45-.69-.16-1.34-.4-1.94-.72s-1.1-.77-1.49-1.35c-.39-.58-.59-1.36-.59-2.34,0-.91.19-1.7.56-2.35.37-.66.86-1.2,1.46-1.62.6-.42,1.3-.74,2.08-.94.78-.2,1.58-.3,2.38-.3,1.02,0,2.05.15,3.08.45,1.04.3,1.92.83,2.64,1.59l-2.92,2.89Z"/>
        <path class="cls-2" d="M182.08,372.21c0-.76.27-1.42.81-1.96s1.19-.81,1.96-.81,1.41.27,1.96.81.81,1.19.81,1.96-.27,1.41-.81,1.96-1.19.81-1.96.81-1.42-.27-1.96-.81-.81-1.19-.81-1.96ZM182.46,377.08h4.77v15.45h-4.77v-15.45Z"/>
        <path class="cls-2" d="M190.67,377.08h4.58v2.1h.06c.15-.3.36-.59.64-.89.28-.3.6-.56.99-.79.38-.23.82-.42,1.3-.57.49-.15,1.02-.22,1.59-.22,1.21,0,2.18.19,2.93.56.74.37,1.32.89,1.73,1.54.41.66.69,1.43.84,2.32.15.89.22,1.85.22,2.89v8.52h-4.77v-7.57c0-.45-.02-.91-.05-1.38-.03-.48-.13-.92-.29-1.32-.16-.4-.4-.73-.73-.99-.33-.25-.8-.38-1.41-.38s-1.11.11-1.49.33c-.38.22-.67.52-.87.89-.2.37-.33.79-.4,1.26-.06.47-.1.95-.1,1.46v7.69h-4.77v-15.45Z"/>
        <path class="cls-2" d="M208.92,368.49h4.77v14.69l5.28-6.1h5.85l-6.14,6.96,6.3,8.49h-6.01l-5.21-7.82h-.06v7.82h-4.77v-24.04Z"/>
        <path class="cls-2" d="M226.28,372.21c0-.76.27-1.42.81-1.96s1.19-.81,1.96-.81,1.41.27,1.96.81.81,1.19.81,1.96-.27,1.41-.81,1.96-1.19.81-1.96.81-1.42-.27-1.96-.81-.81-1.19-.81-1.96ZM226.66,377.08h4.77v15.45h-4.77v-15.45Z"/>
        <path class="cls-2" d="M234.86,377.08h4.58v2.1h.06c.15-.3.36-.59.64-.89.28-.3.6-.56.99-.79.38-.23.82-.42,1.3-.57.49-.15,1.02-.22,1.59-.22,1.21,0,2.18.19,2.93.56.74.37,1.32.89,1.73,1.54.41.66.69,1.43.84,2.32.15.89.22,1.85.22,2.89v8.52h-4.77v-7.57c0-.45-.02-.91-.05-1.38-.03-.48-.13-.92-.29-1.32-.16-.4-.4-.73-.73-.99-.33-.25-.8-.38-1.41-.38s-1.11.11-1.49.33c-.38.22-.67.52-.87.89-.2.37-.33.79-.4,1.26-.06.47-.1.95-.1,1.46v7.69h-4.77v-15.45Z"/>
        <path class="cls-2" d="M269.32,391.22c0,2.93-.74,5.15-2.21,6.66-1.47,1.52-3.71,2.27-6.72,2.27-1.38,0-2.73-.15-4.07-.46-1.34-.31-2.56-.91-3.69-1.8l2.64-3.94c.74.61,1.52,1.1,2.34,1.46.82.36,1.71.54,2.69.54,1.46,0,2.54-.35,3.23-1.06.69-.71,1.03-1.62,1.03-2.72v-1.49h-.06c-.55.74-1.23,1.27-2.05,1.57-.82.31-1.58.46-2.31.46-1.14,0-2.18-.2-3.12-.59-.93-.39-1.73-.94-2.4-1.65-.67-.71-1.18-1.55-1.54-2.53-.36-.98-.54-2.05-.54-3.21,0-1.02.16-2.01.49-2.99.33-.97.79-1.83,1.4-2.58.6-.74,1.34-1.34,2.21-1.8.87-.46,1.85-.68,2.96-.68.68,0,1.3.07,1.86.22.56.15,1.06.34,1.51.57.44.23.83.49,1.14.78s.57.57.76.84h.06v-2.04h4.39v14.15ZM257.31,384.71c0,.51.1.99.29,1.45.19.46.46.86.81,1.21.35.35.75.63,1.21.84.46.21.96.32,1.51.32s1.03-.11,1.49-.32c.47-.21.87-.49,1.22-.84s.62-.75.81-1.21c.19-.46.29-.94.29-1.45s-.1-.99-.29-1.45c-.19-.46-.46-.86-.81-1.21s-.76-.63-1.22-.84c-.47-.21-.96-.32-1.49-.32s-1.05.11-1.51.32c-.46.21-.86.49-1.21.84-.35.35-.62.75-.81,1.21-.19.46-.29.94-.29,1.45Z"/>
        <path class="cls-2" d="M281.98,384.8c0-1.23.22-2.34.67-3.34.45-1,1.05-1.85,1.83-2.56.77-.71,1.69-1.26,2.73-1.64,1.05-.38,2.17-.57,3.35-.57s2.31.19,3.35.57c1.05.38,1.96.93,2.73,1.64.77.71,1.38,1.56,1.83,2.56.45,1,.67,2.11.67,3.34s-.22,2.34-.67,3.34c-.44,1-1.05,1.85-1.83,2.56-.77.71-1.69,1.26-2.73,1.64-1.05.38-2.17.57-3.35.57s-2.31-.19-3.35-.57c-1.05-.38-1.96-.93-2.73-1.64-.77-.71-1.38-1.56-1.83-2.56-.44-1-.67-2.11-.67-3.34ZM286.75,384.8c0,1.17.33,2.11,1,2.83.67.72,1.61,1.08,2.81,1.08s2.15-.36,2.81-1.08c.67-.72,1-1.66,1-2.83s-.33-2.11-1-2.83c-.67-.72-1.61-1.08-2.81-1.08s-2.15.36-2.81,1.08c-.67.72-1,1.66-1,2.83Z"/>
        <path class="cls-2" d="M318.16,392.53h-4.39v-2.03h-.06c-.19.28-.44.56-.75.84-.31.29-.67.55-1.08.78-.41.23-.87.42-1.37.57-.5.15-1.01.22-1.54.22-1.14,0-2.18-.2-3.12-.59-.93-.39-1.73-.94-2.4-1.65-.67-.71-1.18-1.55-1.54-2.53-.36-.97-.54-2.04-.54-3.21,0-1.08.16-2.11.49-3.1s.79-1.86,1.4-2.62,1.34-1.37,2.21-1.83c.87-.46,1.85-.68,2.96-.68,1,0,1.92.15,2.78.46.86.31,1.56.83,2.11,1.57h.06v-10.24h4.77v24.04ZM313.77,384.8c0-1.17-.33-2.11-1-2.83-.67-.72-1.61-1.08-2.81-1.08s-2.15.36-2.81,1.08c-.67.72-1,1.66-1,2.83s.33,2.11,1,2.83c.67.72,1.61,1.08,2.81,1.08s2.15-.36,2.81-1.08c.67-.72,1-1.66,1-2.83Z"/>
        <path class="cls-2" d="M338.19,392.53h-4.39v-2.03h-.06c-.19.28-.44.56-.75.84-.31.29-.67.55-1.08.78-.41.23-.87.42-1.37.57-.5.15-1.01.22-1.54.22-1.14,0-2.18-.2-3.12-.59-.93-.39-1.73-.94-2.4-1.65-.67-.71-1.18-1.55-1.54-2.53-.36-.97-.54-2.04-.54-3.21,0-1.08.16-2.11.49-3.1s.79-1.86,1.4-2.62,1.34-1.37,2.21-1.83c.87-.46,1.85-.68,2.96-.68,1,0,1.92.15,2.78.46.86.31,1.56.83,2.11,1.57h.06v-10.24h4.77v24.04ZM333.8,384.8c0-1.17-.33-2.11-1-2.83-.67-.72-1.61-1.08-2.81-1.08s-2.15.36-2.81,1.08c-.67.72-1,1.66-1,2.83s.33,2.11,1,2.83c.67.72,1.61,1.08,2.81,1.08s2.15-.36,2.81-1.08c.67-.72,1-1.66,1-2.83Z"/>
        <path class="cls-2" d="M350.75,381.62c-.7-.87-1.62-1.3-2.77-1.3-.4,0-.79.1-1.18.29-.38.19-.57.52-.57.99,0,.38.2.66.59.84.39.18.89.34,1.49.48.6.14,1.25.29,1.94.44.69.16,1.34.41,1.94.75.6.34,1.1.8,1.49,1.38.39.58.59,1.36.59,2.34s-.22,1.82-.65,2.46c-.43.65-.99,1.17-1.67,1.56-.68.39-1.44.67-2.29.83-.85.16-1.69.24-2.51.24-1.08,0-2.17-.15-3.27-.46-1.1-.31-2.04-.85-2.8-1.64l2.89-3.21c.45.55.94.97,1.48,1.26s1.17.43,1.89.43c.55,0,1.05-.08,1.49-.24.44-.16.67-.45.67-.87,0-.4-.2-.7-.59-.91s-.89-.37-1.49-.51c-.6-.14-1.25-.29-1.94-.45-.69-.16-1.34-.4-1.94-.72s-1.1-.77-1.49-1.35c-.39-.58-.59-1.36-.59-2.34,0-.91.19-1.7.56-2.35.37-.66.86-1.2,1.46-1.62.6-.42,1.3-.74,2.08-.94.78-.2,1.58-.3,2.38-.3,1.02,0,2.05.15,3.08.45,1.04.3,1.92.83,2.64,1.59l-2.92,2.89Z"/>
        <path class="cls-2" d="M375.83,390.59h-.06c-.53.83-1.24,1.42-2.11,1.78-.88.36-1.81.54-2.78.54-.72,0-1.41-.1-2.08-.3-.67-.2-1.26-.5-1.76-.91-.51-.4-.91-.9-1.21-1.49-.3-.59-.45-1.28-.45-2.07,0-.89.16-1.64.49-2.26.33-.61.77-1.12,1.33-1.53s1.2-.72,1.92-.94c.72-.22,1.47-.39,2.24-.49.77-.11,1.55-.17,2.32-.19.77-.02,1.49-.03,2.15-.03,0-.85-.3-1.52-.91-2.02s-1.32-.75-2.15-.75c-.78,0-1.5.16-2.15.49-.65.33-1.22.78-1.73,1.35l-2.54-2.61c.89-.83,1.93-1.45,3.12-1.86,1.19-.41,2.42-.62,3.69-.62,1.4,0,2.55.17,3.45.52.9.35,1.62.86,2.16,1.54.54.68.92,1.51,1.13,2.5.21.99.32,2.12.32,3.42v7.85h-4.39v-1.94ZM374.66,385.76c-.36,0-.81.02-1.35.05s-1.06.12-1.56.27c-.5.15-.92.37-1.27.67-.35.3-.52.71-.52,1.24,0,.57.24,1,.73,1.27.49.28,1,.41,1.53.41.47,0,.92-.06,1.35-.19s.82-.31,1.16-.54c.34-.23.61-.53.81-.89.2-.36.3-.78.3-1.27v-1.02h-1.18Z"/>
        <path class="cls-2" d="M383.21,377.08h4.58v2.1h.06c.15-.3.36-.59.64-.89.28-.3.6-.56.99-.79.38-.23.82-.42,1.3-.57.49-.15,1.02-.22,1.59-.22,1.21,0,2.18.19,2.93.56.74.37,1.32.89,1.73,1.54.41.66.69,1.43.84,2.32.15.89.22,1.85.22,2.89v8.52h-4.77v-7.57c0-.45-.02-.91-.05-1.38-.03-.48-.13-.92-.29-1.32-.16-.4-.4-.73-.73-.99-.33-.25-.8-.38-1.41-.38s-1.11.11-1.49.33c-.38.22-.67.52-.87.89-.2.37-.33.79-.4,1.26-.06.47-.1.95-.1,1.46v7.69h-4.77v-15.45Z"/>
        <path class="cls-2" d="M417.67,392.53h-4.39v-2.03h-.06c-.19.28-.44.56-.75.84-.31.29-.67.55-1.08.78-.41.23-.87.42-1.37.57-.5.15-1.01.22-1.54.22-1.14,0-2.18-.2-3.12-.59-.93-.39-1.73-.94-2.4-1.65-.67-.71-1.18-1.55-1.54-2.53-.36-.97-.54-2.04-.54-3.21,0-1.08.16-2.11.49-3.1s.79-1.86,1.4-2.62,1.34-1.37,2.21-1.83c.87-.46,1.85-.68,2.96-.68,1,0,1.92.15,2.78.46.86.31,1.56.83,2.11,1.57h.06v-10.24h4.77v24.04ZM413.28,384.8c0-1.17-.33-2.11-1-2.83-.67-.72-1.61-1.08-2.81-1.08s-2.15.36-2.81,1.08c-.67.72-1,1.66-1,2.83s.33,2.11,1,2.83c.67.72,1.61,1.08,2.81,1.08s2.15-.36,2.81-1.08c.67-.72,1-1.66,1-2.83Z"/>
        <path class="cls-2" d="M430.9,377.08h4.77v2.48h.06c.51-.95,1.11-1.67,1.81-2.15s1.58-.72,2.64-.72c.27,0,.55.01.83.03.28.02.53.06.76.13v4.36c-.34-.11-.67-.19-1-.24-.33-.05-.67-.08-1.03-.08-.91,0-1.63.13-2.16.38-.53.25-.94.61-1.22,1.07-.29.46-.47,1-.56,1.64-.08.64-.13,1.34-.13,2.1v6.45h-4.77v-15.45Z"/>
        <path class="cls-2" d="M443.52,372.21c0-.76.27-1.42.81-1.96s1.19-.81,1.96-.81,1.41.27,1.96.81.81,1.19.81,1.96-.27,1.41-.81,1.96-1.19.81-1.96.81-1.42-.27-1.96-.81-.81-1.19-.81-1.96ZM443.9,377.08h4.77v15.45h-4.77v-15.45Z"/>
        <path class="cls-2" d="M460.85,381.62c-.7-.87-1.62-1.3-2.77-1.3-.4,0-.79.1-1.18.29-.38.19-.57.52-.57.99,0,.38.2.66.59.84.39.18.89.34,1.49.48.6.14,1.25.29,1.94.44.69.16,1.34.41,1.94.75.6.34,1.1.8,1.49,1.38.39.58.59,1.36.59,2.34s-.22,1.82-.65,2.46c-.43.65-.99,1.17-1.67,1.56-.68.39-1.44.67-2.29.83-.85.16-1.69.24-2.51.24-1.08,0-2.17-.15-3.27-.46-1.1-.31-2.04-.85-2.8-1.64l2.89-3.21c.45.55.94.97,1.48,1.26s1.17.43,1.89.43c.55,0,1.05-.08,1.49-.24.44-.16.67-.45.67-.87,0-.4-.2-.7-.59-.91s-.89-.37-1.49-.51c-.6-.14-1.25-.29-1.94-.45-.69-.16-1.34-.4-1.94-.72s-1.1-.77-1.49-1.35c-.39-.58-.59-1.36-.59-2.34,0-.91.19-1.7.56-2.35.37-.66.86-1.2,1.46-1.62.6-.42,1.3-.74,2.08-.94.78-.2,1.58-.3,2.38-.3,1.02,0,2.05.15,3.08.45,1.04.3,1.92.83,2.64,1.59l-2.92,2.89Z"/>
        <path class="cls-2" d="M466.51,372.21c0-.76.27-1.42.81-1.96s1.19-.81,1.96-.81,1.41.27,1.96.81.81,1.19.81,1.96-.27,1.41-.81,1.96-1.19.81-1.96.81-1.42-.27-1.96-.81-.81-1.19-.81-1.96ZM466.89,377.08h4.77v15.45h-4.77v-15.45Z"/>
        <path class="cls-2" d="M475.09,377.08h4.58v2.1h.06c.15-.3.36-.59.64-.89.28-.3.6-.56.99-.79.38-.23.82-.42,1.3-.57.49-.15,1.02-.22,1.59-.22,1.21,0,2.18.19,2.93.56.74.37,1.32.89,1.73,1.54.41.66.69,1.43.84,2.32.15.89.22,1.85.22,2.89v8.52h-4.77v-7.57c0-.45-.02-.91-.05-1.38-.03-.48-.13-.92-.29-1.32-.16-.4-.4-.73-.73-.99-.33-.25-.8-.38-1.41-.38s-1.11.11-1.49.33c-.38.22-.67.52-.87.89-.2.37-.33.79-.4,1.26-.06.47-.1.95-.1,1.46v7.69h-4.77v-15.45Z"/>
        <path class="cls-2" d="M509.55,391.22c0,2.93-.74,5.15-2.21,6.66-1.47,1.52-3.71,2.27-6.72,2.27-1.38,0-2.73-.15-4.07-.46-1.34-.31-2.56-.91-3.69-1.8l2.64-3.94c.74.61,1.52,1.1,2.34,1.46.82.36,1.71.54,2.69.54,1.46,0,2.54-.35,3.23-1.06.69-.71,1.03-1.62,1.03-2.72v-1.49h-.06c-.55.74-1.23,1.27-2.05,1.57-.82.31-1.58.46-2.31.46-1.14,0-2.18-.2-3.12-.59-.93-.39-1.73-.94-2.4-1.65-.67-.71-1.18-1.55-1.54-2.53-.36-.98-.54-2.05-.54-3.21,0-1.02.16-2.01.49-2.99.33-.97.79-1.83,1.4-2.58.6-.74,1.34-1.34,2.21-1.8.87-.46,1.85-.68,2.96-.68.68,0,1.3.07,1.86.22.56.15,1.06.34,1.51.57.44.23.83.49,1.14.78s.57.57.76.84h.06v-2.04h4.39v14.15ZM497.54,384.71c0,.51.1.99.29,1.45.19.46.46.86.81,1.21.35.35.75.63,1.21.84.46.21.96.32,1.51.32s1.03-.11,1.49-.32c.47-.21.87-.49,1.22-.84s.62-.75.81-1.21c.19-.46.29-.94.29-1.45s-.1-.99-.29-1.45c-.19-.46-.46-.86-.81-1.21s-.76-.63-1.22-.84c-.47-.21-.96-.32-1.49-.32s-1.05.11-1.51.32c-.46.21-.86.49-1.21.84-.35.35-.62.75-.81,1.21-.19.46-.29.94-.29,1.45Z"/>
        <path class="cls-2" d="M533.3,380.89h-4.2v5.15c0,.42.02.81.06,1.16.04.35.14.65.29.91.15.25.38.45.68.59.31.14.72.21,1.22.21.25,0,.59-.03,1-.08.41-.05.73-.17.94-.37v3.97c-.53.19-1.08.32-1.65.38s-1.13.1-1.69.1c-.81,0-1.55-.08-2.23-.25-.68-.17-1.27-.44-1.78-.81-.51-.37-.91-.85-1.19-1.45-.29-.59-.43-1.31-.43-2.16v-7.34h-3.05v-3.82h3.05v-4.58h4.77v4.58h4.2v3.82Z"/>
        <path class="cls-2" d="M550.35,389.86c-.76.98-1.73,1.73-2.89,2.26-1.17.53-2.37.79-3.62.79s-2.31-.19-3.35-.57c-1.05-.38-1.96-.93-2.73-1.64-.77-.71-1.38-1.56-1.83-2.56-.45-1-.67-2.11-.67-3.34s.22-2.34.67-3.34c.44-1,1.05-1.85,1.83-2.56.77-.71,1.69-1.26,2.73-1.64,1.05-.38,2.17-.57,3.35-.57,1.1,0,2.1.19,3,.57.9.38,1.66.93,2.29,1.64.62.71,1.11,1.56,1.45,2.56.34,1,.51,2.11.51,3.34v1.49h-11.06c.19.91.6,1.64,1.24,2.18s1.42.81,2.35.81c.78,0,1.45-.17,1.99-.52s1.01-.8,1.42-1.35l3.34,2.45ZM546.31,383.05c.02-.81-.24-1.49-.79-2.07s-1.26-.86-2.13-.86c-.53,0-1,.08-1.4.25-.4.17-.75.39-1.03.65-.29.27-.51.57-.67.92-.16.35-.25.72-.27,1.1h6.29Z"/>
        <path class="cls-2" d="M553.97,377.08h4.58v2.1h.06c.15-.3.36-.59.64-.89.28-.3.6-.56.99-.79.38-.23.82-.42,1.3-.57.49-.15,1.02-.22,1.59-.22,1.21,0,2.18.19,2.93.56.74.37,1.32.89,1.73,1.54.41.66.69,1.43.84,2.32.15.89.22,1.85.22,2.89v8.52h-4.77v-7.57c0-.45-.02-.91-.05-1.38-.03-.48-.13-.92-.29-1.32-.16-.4-.4-.73-.73-.99-.33-.25-.8-.38-1.41-.38s-1.11.11-1.49.33c-.38.22-.67.52-.87.89-.2.37-.33.79-.4,1.26-.06.47-.1.95-.1,1.46v7.69h-4.77v-15.45Z"/>
        <path class="cls-2" d="M580.96,381.62c-.7-.87-1.62-1.3-2.77-1.3-.4,0-.79.1-1.18.29-.38.19-.57.52-.57.99,0,.38.2.66.59.84.39.18.89.34,1.49.48.6.14,1.25.29,1.94.44.69.16,1.34.41,1.94.75.6.34,1.1.8,1.49,1.38.39.58.59,1.36.59,2.34s-.22,1.82-.65,2.46c-.43.65-.99,1.17-1.67,1.56-.68.39-1.44.67-2.29.83-.85.16-1.69.24-2.51.24-1.08,0-2.17-.15-3.27-.46-1.1-.31-2.04-.85-2.8-1.64l2.89-3.21c.45.55.94.97,1.48,1.26s1.17.43,1.89.43c.55,0,1.05-.08,1.49-.24.44-.16.67-.45.67-.87,0-.4-.2-.7-.59-.91s-.89-.37-1.49-.51c-.6-.14-1.25-.29-1.94-.45-.69-.16-1.34-.4-1.94-.72s-1.1-.77-1.49-1.35c-.39-.58-.59-1.36-.59-2.34,0-.91.19-1.7.56-2.35.37-.66.86-1.2,1.46-1.62.6-.42,1.3-.74,2.08-.94.78-.2,1.58-.3,2.38-.3,1.02,0,2.05.15,3.08.45,1.04.3,1.92.83,2.64,1.59l-2.92,2.89Z"/>
        <path class="cls-2" d="M586.62,372.21c0-.76.27-1.42.81-1.96s1.19-.81,1.96-.81,1.41.27,1.96.81.81,1.19.81,1.96-.27,1.41-.81,1.96-1.19.81-1.96.81-1.42-.27-1.96-.81-.81-1.19-.81-1.96ZM587,377.08h4.77v15.45h-4.77v-15.45Z"/>
        <path class="cls-2" d="M594.63,384.8c0-1.23.22-2.34.67-3.34.45-1,1.05-1.85,1.83-2.56.77-.71,1.69-1.26,2.73-1.64,1.05-.38,2.17-.57,3.35-.57s2.31.19,3.35.57c1.05.38,1.96.93,2.73,1.64.77.71,1.38,1.56,1.83,2.56.45,1,.67,2.11.67,3.34s-.22,2.34-.67,3.34c-.44,1-1.05,1.85-1.83,2.56-.77.71-1.69,1.26-2.73,1.64-1.05.38-2.17.57-3.35.57s-2.31-.19-3.35-.57c-1.05-.38-1.96-.93-2.73-1.64-.77-.71-1.38-1.56-1.83-2.56-.44-1-.67-2.11-.67-3.34ZM599.4,384.8c0,1.17.33,2.11,1,2.83.67.72,1.61,1.08,2.81,1.08s2.15-.36,2.81-1.08c.67-.72,1-1.66,1-2.83s-.33-2.11-1-2.83c-.67-.72-1.61-1.08-2.81-1.08s-2.15.36-2.81,1.08c-.67.72-1,1.66-1,2.83Z"/>
        <path class="cls-2" d="M614.6,377.08h4.58v2.1h.06c.15-.3.36-.59.64-.89.28-.3.6-.56.99-.79.38-.23.82-.42,1.3-.57.49-.15,1.02-.22,1.59-.22,1.21,0,2.18.19,2.93.56.74.37,1.32.89,1.73,1.54.41.66.69,1.43.84,2.32.15.89.22,1.85.22,2.89v8.52h-4.77v-7.57c0-.45-.02-.91-.05-1.38-.03-.48-.13-.92-.29-1.32-.16-.4-.4-.73-.73-.99-.33-.25-.8-.38-1.41-.38s-1.11.11-1.49.33c-.38.22-.67.52-.87.89-.2.37-.33.79-.4,1.26-.06.47-.1.95-.1,1.46v7.69h-4.77v-15.45Z"/>
      </g>
      <path class="cls-1" d="M373.97,88.88c-1.27-.31-4.05-.33-8.01-.24-.46,0-.85.02-1.15.02-.68-2-1.35-4-2.01-6.01-.11-.33-.21-.67-.31-1.02-.28-.94-.56-1.9-.99-2.74-.5-.96-1.4-1.61-2.26-2.23-.78-.56-1.52-1.09-1.96-1.82-.5-.83-.94-1.74-1.37-2.62-.18-.38-.37-.75-.56-1.12-1.08-2.08-2.14-4.21-3.16-6.31-.17-.35-.4-.89-.67-1.5-1.11-2.52-2.08-4.66-2.72-5.33-.42-.44-.96-.79-1.49-1.13-.21-.13-.41-.26-.59-.39-.55-.39-1.1-.78-1.64-1.18-.84-.61-1.68-1.22-2.54-1.79-.35-.24-.72-.47-1.1-.7-.7-.44-1.42-.89-2.03-1.4-.08-.07-.15-.18-.26-.34-.75-1.18-1.39-2.5-2-3.78-.2-.41-.4-.82-.6-1.23l-1.09-2.18c-1.3-2.6-2.64-5.29-3.91-7.96-.28-.59-.54-1.19-.8-1.79-.35-.83-.72-1.69-1.18-2.56-.16-.31-.36-.69-.74-.9-.07-.04-.15-.06-.23-.04-.96.13-3.56,2.19-7.13,5.1-1.25,1.02-2.45,2-3.22,2.56l-10.62-26.44-2.84-6.97c-.16-.39-.31-.79-.47-1.19-.34-.88-.7-1.79-1.11-2.68-.14-.29-.27-.57-.62-.81-.04-.03-.08-.05-.13-.06-.24-.05-.51-.1-.81-.1-.1-.02-.18.03-.25.09-.35.29-.49.6-.63.92-.82,1.97-1.58,4.01-2.3,5.99-.49,1.33-.98,2.67-1.5,3.99-3.6,9.25-7.33,18.61-11.1,27.83-1.41-1.15-2.8-2.4-4.14-3.61-.75-.67-1.49-1.34-2.24-1.99-.25-.22-.5-.45-.75-.68-.66-.61-1.35-1.24-2.09-1.72-.2-.13-.43-.24-.76-.22-.35.03-.69.22-.94.55-.29.38-.89,1.68-1.64,3.35-.23.52-.43.96-.55,1.19l-4.51,9.1c-.33.68-.65,1.38-.98,2.07-.76,1.63-1.55,3.31-2.43,4.88-.4.25-1.04.62-1.79,1.06-3.5,2.07-6.71,3.99-7.48,4.83-.62.67-1.07,1.71-1.47,2.62-.13.29-.25.57-.37.83-1.37,2.91-2.74,5.88-4.07,8.81-.19.41-.38.84-.56,1.27-.45,1.04-.92,2.11-1.47,3.05-.49.82-1.42,1.47-2.31,2.11-1.02.72-2.08,1.46-2.61,2.51-.41.81-.65,1.74-.89,2.65-.08.29-.15.58-.23.86-.59,2.11-1.19,4.22-1.8,6.32-.22,0-.51,0-.86-.01-5.58-.09-8.23-.03-9.21.24h-53.2v2h250.89v-2h-53.44ZM331.8,57.07c1.43,6.67,2.91,13.54,3.86,20.4-.24-.42-.48-.84-.71-1.25-.25-.45-.51-.9-.77-1.35-1.01-1.65-1.98-3.38-2.92-5.04-.67-1.19-1.34-2.37-2.03-3.54-.3-.52-.64-1.03-.98-1.54-.59-.9-1.2-1.82-1.62-2.77-.52-1.19-.88-2.52-1.23-3.81-.2-.73-.4-1.46-.62-2.16-.81-2.55-1.8-5.08-2.75-7.53l-.17-.44c.56-.91,1.13-1.81,1.7-2.71,1.54-2.41,3.12-4.9,4.4-7.59.35,1.73.98,5.19,1.33,7.09.2,1.06.35,1.88.4,2.16h0c.66,3.37,1.4,6.8,2.11,10.11ZM352.76,88.67l-3.83-12.93c-.19-.66-.39-1.32-.6-1.98-.39-1.29-.79-2.61-1.13-3.92,2.89,2.18,11.82,9.61,12.25,10.24.65,1.07,1.4,3.47,2.05,5.59.34,1.11.67,2.17.97,3h-9.72ZM343.25,88.69h-2.23c-.86-1.54-1.57-3.26-2.27-4.92-.26-.62-.52-1.24-.78-1.84.56-.93,1.18-1.86,1.78-2.76.28-.42.56-.85.84-1.27,1.53-2.36,3.1-4.74,4.68-7.1.57,1.77,2.02,6.8,3.14,10.63.88,3.04,1.72,5.93,2.13,7.26h-7.29ZM335.75,88.67h-15.41c-.83-2.52-1.79-5.07-2.71-7.54-.41-1.09-.82-2.18-1.21-3.26-.15-.42-.33-.85-.51-1.29-.43-1.07-.88-2.18-1.06-3.22-.14-.79.54-4.31.95-6.4.14-.73.26-1.34.32-1.71.15-.87.29-1.74.44-2.62.58-3.38,1.17-6.86,1.57-10.32.21.31.4.66.58.99.14.25.27.49.4.69l4.45,7.36c.87,1.44,1.74,2.87,2.61,4.3,2.12,3.48,4.32,7.08,6.36,10.69.24.42.49.85.74,1.27.43.74.88,1.5,1.28,2.27.35.67.66,1.39.96,2.09.18.42.36.84.55,1.26.24.52.48,1.04.73,1.56.59,1.27,1.21,2.57,1.76,3.88l-2.81-.02ZM308.5,88.68c-1.77,0-3.54-.01-5.31-.01h-5.65c.85-3.23,1.83-6.49,2.77-9.65l.65-2.18c.16-.54.31-1.11.45-1.68.32-1.24.64-2.52,1.18-3.63.45-.92,1.39-2.15,2.22-3.22.36-.47.71-.92.99-1.32,1.78-2.49,3.64-4.99,5.44-7.4,1.79-2.4,3.64-4.88,5.41-7.36-.05.53-.18,1.37-.44,2.68-.04.19-.07.34-.08.43-.52,3.23-1.07,6.53-1.64,9.81-.09.49-.21,1.11-.35,1.8-.45,2.24-1.02,5.04-.94,6.41.06,1.01,4.34,12.51,5.47,15.32-3.39.04-6.84.02-10.18,0ZM294.28,88.7h-24.12c.2-.43.42-.85.63-1.26.16-.3.31-.6.46-.89.98-1.93,1.94-3.89,2.87-5.84,6.97-.17,14.11-.06,20.85.06-.11,1.75-.28,3.52-.44,5.23-.09.9-.17,1.79-.25,2.69ZM286.13,69.1c.84,1.08,1.67,2.18,2.5,3.28,1.69,2.24,3.44,4.55,5.28,6.7l-12.64-.07h-7.33c-1.57-1.65-3.17-3.31-4.75-4.93l8.09-5.68c1.72-1.19,3.5-2.43,5.21-3.73,1.03.96,1.97,2.2,2.88,3.4.26.35.52.69.77,1.02ZM268.19,88.69s-.03,0-.04,0c-.12-.69-.04-1.73.02-2.58.03-.4.06-.78.06-1.1.05-3.11.14-6.27.25-9.39.52.57,1.05,1.13,1.58,1.69.86.91,1.75,1.85,2.59,2.81-.72,1.37-1.41,2.78-2.09,4.15-.33.68-.66,1.35-1,2.02-.11.21-.21.45-.32.7-.27.63-.61,1.41-1.06,1.7ZM296.16,85.51c.04-.42.08-.83.12-1.25l.09-.86c.11-1.1.23-2.23.22-3.36,0-.07-.02-.13-.05-.19-.62-1.05-1.46-2.04-2.27-3-.35-.41-.7-.82-1.02-1.22-2.01-2.56-4.04-5.12-6.08-7.66.57-.8,1.11-1.63,1.63-2.44.28-.43.56-.86.84-1.29.55-.83,1.11-1.65,1.67-2.47.54-.8,1.09-1.6,1.62-2.4.79,3.54,4.12,22.56,4.09,23.51-.03.82-.48,2.31-.97,3.7.03-.36.07-.73.11-1.09ZM321.76,45.3c-.2.29-.39.58-.57.85-.07-.18-.15-.36-.22-.54l-.59-1.47c-.46-1.15-.94-2.34-1.36-3.54,1.37-1.15,2.81-2.27,4.21-3.35,1.39-1.08,2.83-2.19,4.21-3.35-.45,3.49-3.46,8.02-5.69,11.39ZM341.37,72.69c-.47.69-.94,1.37-1.39,2.05-.44.64-.85,1.3-1.26,1.96-.44.7-.89,1.42-1.37,2.12-.03-.2-.05-.41-.08-.61-.16-1.3-.33-2.65-.55-3.97-.66-3.98-1.5-7.98-2.32-11.85-.24-1.14-.48-2.28-.72-3.42l-1.74-8.78-.43-2.07c-.52-2.5-1.04-4.99-1.52-7.5-.08-.4-.16-.8-.24-1.2-.24-1.16-.49-2.36-.6-3.52.12.27.24.56.36.84.15.35.29.7.44,1.01,1.03,2.15,2.08,4.29,3.14,6.43,1.7,3.43,3.43,6.85,5.16,10.26,2.15,4.24,4.37,8.62,6.48,12.96-.99,1.83-2.21,3.6-3.38,5.31ZM322.99,56.17c-.5-.83-1.01-1.64-1.51-2.46-.47-.76-.95-1.52-1.41-2.29-.15-.25-.3-.52-.46-.8-.42-.76-.86-1.54-1.41-2.14-.29-.31-.55-.31-.87-.31-.06,0-.11.01-.16.03-.52.23-2.76,3.21-8.59,11.38-.66.93-1.16,1.63-1.39,1.93-.84,1.08-1.65,2.21-2.43,3.31-.35.49-.7.98-1.05,1.46-.24.33-.51.68-.78,1.03-.86,1.11-1.74,2.26-2.23,3.47-.29.72-.49,1.49-.69,2.23-.07.26-.14.53-.21.79-.17.59-.33,1.19-.49,1.8-.37,1.36-.74,2.76-1.18,4.12-.32-1.83-.63-3.67-.93-5.5-.42-2.54-.86-5.16-1.34-7.74-.13-.69-.3-1.52-.49-2.42-.47-2.23-1-4.76-1.06-6.29-.04-1.11.2-2.31.42-3.48.09-.48.18-.94.26-1.4.61-3.9,1.27-7.85,1.94-11.75,1.95-11.8,3.85-23.79,5.66-35.65.73,1.6,2.29,5.37,4.97,12.3,1.68,4.34,3.49,8.72,5.23,12.96l1.62,3.93c.54,1.32,1.07,2.65,1.59,3.97.66,1.67,1.33,3.35,2.02,5,.55,1.31,1.14,2.62,1.72,3.88.75,1.65,1.53,3.36,2.2,5.07.55,1.43,1.05,2.88,1.51,4.35-.15-.27-.3-.53-.46-.79ZM300.07,11.36c-.13.71-.23,1.28-.27,1.56-1.64,10.93-3.41,22-5.26,32.9l-1.2,7.65c-.04.26-.08.53-.12.81-.13.87-.26,1.78-.54,2.54-.39,1.07-1.16,2.15-1.9,3.2-.25.35-.49.69-.71,1.03-1.27,1.91-2.54,3.82-3.79,5.74-.42-.51-.85-1.02-1.28-1.52l-1.71-1.93c-.06-1.39-.05-2.82-.03-4.21,0-.64.01-1.27.01-1.91,0-.47-.02-.98-.03-1.49-.05-1.4-.09-2.85.17-4.07.17-.79.49-1.6.79-2.38l.25-.66c.57-1.52,1.18-3.02,1.79-4.53l.73-1.8c2.81-7.04,5.7-14.15,8.58-21.14,1.39-3.52,2.79-7.12,4.15-10.69.19-.49.37-.99.56-1.49.15-.42.31-.84.47-1.27-.2,1.27-.46,2.72-.63,3.66ZM281.15,51.38c-.19,1.16-.16,2.4-.14,3.59,0,.4.01.8.01,1.18,0,2.32-.03,4.64-.07,6.97-1.88,1.4-3.84,2.77-5.74,4.1-1.24.87-2.49,1.74-3.72,2.63-.35.25-.71.5-1.07.75-1.16.8-2.35,1.63-3.35,2.6-.07.07-.11.16-.11.26l-.34,13.31-.04,1.92c-1.85,0-3.69.02-5.54.05,0-2.14-.05-4.29-.09-6.43-.07-3.82-.14-7.77-.02-11.64,1.55-2.39,3.52-4.93,6.21-7.97.37-.41.76-.83,1.16-1.25.9-.95,1.83-1.93,2.53-2.98.93-1.4,4.29-13.1,4.78-15.49.57-2.75,1.14-5.94,1.21-9.02,1.39,1.06,4.96,4.24,8.19,7.2-1.2,2.46-3.5,7.95-3.86,10.23ZM259.39,71.16c.07,2.02.08,4.08.08,6.07,0,.83,0,1.67,0,2.5,0,1.22.03,2.44.04,3.66.02,1.78.05,3.57.05,5.35h-1.73c-.34-6.25-.63-12.59-.87-18.85.97.42,1.72.81,2.42,1.26ZM273.9,43.27c-.65,2.81-3.4,12.74-4.41,14.31-.47.74-1.14,1.44-1.79,2.12-.37.39-.74.77-1.07,1.16-2.34,2.75-4.75,5.58-6.85,8.68-.34-.17-.68-.34-1.02-.51l-1.39-.65c.53-.77,1.01-1.58,1.48-2.37.33-.56.67-1.12,1.02-1.67.36-.57.75-1.12,1.13-1.68.4-.57.79-1.15,1.17-1.73,1.43-2.23,2.83-4.66,4.18-7.21,1.68-3.18,3.29-6.48,4.84-9.67.66-1.35,1.31-2.7,1.98-4.05.24-.5.49-.99.73-1.49.41-.85.83-1.72,1.27-2.58-.22,2.17-.91,5.79-1.26,7.34ZM260.64,60.34c-.48.77-.98,1.52-1.49,2.27-.44.66-.89,1.32-1.31,2-.23.36-.45.74-.67,1.12-.53.91-1.08,1.85-1.74,2.58-1.22,1.35-2.75,2.6-4.26,3.81.29-.63.63-1.41,1.02-2.27,1.65-3.7,4.42-9.89,5.18-10.65.72-.71,3.57-2.42,5.46-3.55.18-.11.36-.22.52-.31-.88,1.83-1.78,3.51-2.7,5ZM256.27,88.73l-13.51-.06h-.58c.79-2.9,1.61-5.82,2.45-8.7,1.03-.94,2.12-1.86,3.17-2.74.55-.46,1.1-.92,1.64-1.39,2.02-1.74,4.04-3.53,6.03-5.32.09.75.1,1.69.11,2.54,0,.52.01,1.01.03,1.43.27,4.73.49,9.52.65,14.23ZM348.62,68.08c-.71-.61-1.45-1.24-2.27-1.75-.82-2.02-1.82-4-2.79-5.92-.88-1.73-1.78-3.51-2.55-5.33,2.6,1.8,5.56,3.96,6.2,4.73,1.08,1.29,2.37,6.51,2.99,9.54-.54-.39-1.05-.83-1.59-1.28ZM352.6,71.3c-.21-.19-.42-.38-.62-.55-.24-.82-.4-1.69-.56-2.54-.02-.1-.04-.2-.06-.31.33.67.65,1.41.91,2.01.23.52.43.98.58,1.29.1.21.21.41.31.61-.19-.17-.38-.34-.57-.51Z"/>
      <path class="cls-1" d="M427.41,423.35h-250.89v2h53.2c.98.27,3.63.33,9.21.24.34,0,.64-.01.86-.01.61,2.1,1.21,4.21,1.8,6.32.08.28.15.56.23.86.23.9.48,1.84.89,2.65.53,1.05,1.59,1.79,2.61,2.51.9.63,1.83,1.28,2.31,2.1.56.94,1.02,2.01,1.47,3.05.19.43.37.86.56,1.27,1.33,2.94,2.7,5.9,4.08,8.82.12.25.24.53.37.83.4.92.84,1.95,1.47,2.63.77.84,3.98,2.76,7.48,4.83.75.44,1.38.82,1.79,1.06.88,1.57,1.67,3.25,2.43,4.87.32.69.65,1.39.98,2.08l4.51,9.1c.11.23.31.67.55,1.19.73,1.61,1.36,2.98,1.65,3.35.25.33.59.53.94.55.32.03.56-.09.76-.22.75-.47,1.43-1.1,2.09-1.72.25-.23.5-.47.75-.68.75-.65,1.49-1.32,2.24-1.99,1.34-1.21,2.73-2.45,4.14-3.61,3.77,9.21,7.51,18.57,11.1,27.83.52,1.32,1.01,2.65,1.5,3.99.73,1.97,1.48,4.02,2.3,5.99.13.32.28.62.63.92.07.06.15.09.24.09h0c.31,0,.57-.05.81-.1.05,0,.09-.03.13-.06.35-.24.48-.51.63-.83.41-.87.76-1.78,1.1-2.65.15-.4.31-.79.47-1.19l2.84-6.97,10.62-26.44c.77.56,1.96,1.53,3.22,2.56,3.57,2.91,6.17,4.97,7.13,5.1.08.01.16,0,.23-.04.38-.21.58-.59.76-.95.43-.81.8-1.67,1.15-2.51.26-.6.51-1.21.8-1.79,1.28-2.67,2.62-5.37,3.93-7.99l1.07-2.15c.2-.4.4-.81.6-1.23.62-1.28,1.25-2.6,2.03-3.82.08-.12.15-.23.23-.3.61-.51,1.33-.96,2.03-1.4.37-.23.74-.46,1.1-.7.86-.58,1.7-1.19,2.54-1.79.55-.39,1.09-.79,1.64-1.18.19-.13.39-.26.59-.39.53-.34,1.08-.69,1.49-1.13.64-.67,1.61-2.81,2.72-5.33.27-.61.5-1.15.67-1.5,1.01-2.1,2.07-4.23,3.16-6.32.19-.37.37-.74.56-1.12.43-.88.87-1.79,1.37-2.62.43-.73,1.17-1.26,1.96-1.82.87-.62,1.77-1.27,2.26-2.23.43-.83.72-1.8.99-2.73.1-.35.2-.69.31-1.02.66-2.01,1.33-4.01,2.01-6.01.3,0,.69.01,1.16.02,3.94.08,6.72.06,8-.24h53.44v-2ZM256.27,425.5c-.16,4.72-.38,9.5-.65,14.23-.02.42-.03.91-.03,1.43,0,.85-.02,1.79-.11,2.54-2-1.8-4.03-3.59-6.03-5.32-.54-.47-1.09-.93-1.64-1.39-1.05-.89-2.14-1.8-3.17-2.74-.84-2.88-1.67-5.81-2.45-8.69l14.09-.07ZM259.56,425.48c0,1.78-.02,3.57-.05,5.35-.02,1.22-.03,2.44-.04,3.66,0,.83,0,1.67,0,2.5,0,1.99,0,4.05-.08,6.07-.7.45-1.45.84-2.42,1.26.24-6.26.53-12.6.87-18.85h1.73ZM255.42,445.91c.66.74,1.21,1.68,1.74,2.58.22.38.45.76.67,1.12.42.67.87,1.33,1.31,1.99.51.75,1.01,1.5,1.49,2.28.92,1.49,1.83,3.17,2.7,5-.16-.1-.34-.2-.52-.31-1.89-1.13-4.74-2.84-5.46-3.55-.76-.76-3.53-6.95-5.18-10.65-.39-.86-.73-1.64-1.02-2.27,1.51,1.21,3.04,2.46,4.26,3.81ZM257.37,445.86l1.4-.66c.34-.17.67-.34,1.01-.5,2.1,3.1,4.51,5.93,6.85,8.68.33.39.7.77,1.07,1.16.65.68,1.32,1.38,1.79,2.12,1,1.57,3.76,11.5,4.41,14.31.36,1.55,1.05,5.17,1.26,7.34-.44-.86-.86-1.73-1.27-2.58-.24-.5-.48-1-.73-1.49-.66-1.35-1.32-2.7-1.98-4.05-1.55-3.19-3.15-6.49-4.84-9.67-1.35-2.55-2.75-4.98-4.18-7.21-.38-.59-.77-1.16-1.17-1.73-.38-.55-.77-1.11-1.13-1.68-.35-.54-.68-1.1-1.02-1.67-.47-.79-.95-1.6-1.48-2.37ZM268.31,452.79c-.4-.42-.8-.84-1.16-1.25-2.69-3.04-4.66-5.58-6.21-7.97-.12-3.87-.04-7.82.02-11.64.04-2.15.08-4.29.09-6.43,1.84.03,3.69.04,5.54.05l.38,15.22c0,.1.04.19.11.26,1,.97,2.2,1.8,3.35,2.6.36.25.72.5,1.07.75,1.23.88,2.47,1.75,3.72,2.63,1.9,1.33,3.86,2.7,5.74,4.1.04,2.32.06,4.64.07,6.97,0,.39,0,.78-.01,1.18-.02,1.19-.04,2.43.14,3.59.36,2.28,2.67,7.76,3.86,10.23-3.22,2.96-6.8,6.15-8.19,7.2-.07-3.07-.65-6.26-1.21-9.02h0c-.49-2.39-3.85-14.09-4.78-15.49-.7-1.05-1.63-2.03-2.53-2.98ZM291.06,425.54h3.22c.08.89.16,1.78.25,2.68.16,1.72.33,3.49.44,5.23-6.74.12-13.88.23-20.85.06-.93-1.95-1.9-3.92-2.87-5.83-.15-.3-.3-.59-.46-.89-.21-.41-.44-.83-.63-1.24h20.9ZM303.19,425.56c1.77,0,3.54,0,5.31-.01,3.34-.01,6.78-.03,10.18,0-1.13,2.81-5.41,14.31-5.47,15.32-.08,1.38.48,4.17.94,6.42.14.69.27,1.32.35,1.8.57,3.28,1.12,6.58,1.64,9.82.02.09.04.24.08.43.26,1.32.39,2.17.44,2.69-1.78-2.49-3.63-4.97-5.42-7.37-1.8-2.42-3.66-4.91-5.44-7.4-.28-.39-.63-.84-.99-1.32-.83-1.08-1.77-2.3-2.22-3.22-.53-1.1-.86-2.39-1.18-3.63-.14-.57-.29-1.13-.45-1.68l-.65-2.18c-.94-3.16-1.92-6.42-2.77-9.66h5.65ZM335.75,425.56l2.81-.02c-.55,1.31-1.17,2.62-1.76,3.89-.24.52-.49,1.04-.73,1.56-.19.41-.37.84-.55,1.26-.3.7-.61,1.42-.96,2.09-.4.77-.85,1.53-1.28,2.27-.25.42-.5.84-.74,1.27-2.05,3.61-4.24,7.21-6.36,10.69-.87,1.43-1.74,2.86-2.61,4.3l-4.45,7.36c-.13.21-.26.45-.4.7-.18.33-.38.68-.58.99-.4-3.45-.99-6.94-1.57-10.32-.15-.87-.3-1.75-.44-2.62-.06-.37-.18-.98-.32-1.71-.41-2.1-1.1-5.61-.95-6.4.19-1.04.63-2.15,1.06-3.22.18-.44.35-.87.51-1.29.4-1.09.81-2.18,1.22-3.27.92-2.46,1.88-5.01,2.71-7.54h15.41ZM350.54,425.54c-.41,1.33-1.25,4.22-2.13,7.26-1.12,3.86-2.59,8.93-3.13,10.65-1.58-2.36-3.16-4.75-4.69-7.11-.28-.42-.56-.85-.84-1.27-.6-.9-1.22-1.82-1.78-2.76.26-.6.52-1.22.78-1.84.69-1.66,1.41-3.38,2.27-4.93h9.51ZM327.45,480.33c-1.38-1.16-2.82-2.27-4.21-3.35-1.4-1.08-2.84-2.19-4.21-3.34.42-1.19.9-2.38,1.36-3.54l.59-1.47c.07-.18.14-.36.22-.54.18.27.37.56.57.85,2.23,3.37,5.24,7.9,5.69,11.39ZM273.93,435.21h7.34s12.64-.05,12.64-.05c-1.84,2.15-3.58,4.46-5.27,6.7-.83,1.1-1.67,2.2-2.51,3.28-.25.33-.51.67-.77,1.02-.91,1.2-1.84,2.44-2.88,3.4-1.71-1.3-3.48-2.53-5.2-3.72l-8.1-5.68c1.58-1.61,3.18-3.27,4.75-4.94ZM292.93,454.83c-.53-.79-1.07-1.58-1.61-2.37-.56-.83-1.12-1.65-1.68-2.48-.29-.43-.57-.86-.85-1.29-.52-.81-1.06-1.64-1.63-2.43,2.04-2.54,4.07-5.1,6.08-7.66.32-.41.67-.81,1.02-1.23.81-.96,1.66-1.95,2.27-3,.03-.06.05-.12.05-.19.01-1.12-.1-2.26-.22-3.36l-.09-.86c-.04-.41-.08-.83-.12-1.25-.04-.36-.07-.72-.11-1.09.5,1.39.95,2.88.97,3.7.03.95-3.28,19.86-4.1,23.49ZM272.65,434.12c-.83.96-1.72,1.9-2.59,2.81-.53.56-1.06,1.12-1.58,1.69-.11-3.12-.2-6.27-.25-9.39,0-.32-.04-.69-.06-1.1-.06-.85-.14-1.9-.02-2.59.01,0,.02,0,.04,0,.46.29.79,1.07,1.07,1.7.11.26.22.5.32.7.33.67.67,1.35,1,2.02.67,1.37,1.36,2.78,2.09,4.15ZM283.22,458.5c.02-.51.03-1.01.03-1.49,0-.63,0-1.27-.01-1.91-.02-1.39-.03-2.82.03-4.21l1.71-1.93c.44-.5.87-1,1.28-1.52,1.25,1.92,2.52,3.83,3.79,5.74.22.33.46.67.71,1.03.74,1.05,1.51,2.13,1.9,3.2.28.76.41,1.67.54,2.54.04.28.08.55.12.81l1.2,7.65c1.85,10.9,3.62,21.96,5.26,32.89.04.28.14.85.27,1.56.17.94.42,2.4.63,3.66-.16-.42-.32-.85-.47-1.27-.18-.5-.37-1-.56-1.49-1.36-3.58-2.76-7.18-4.15-10.7-2.88-7-5.77-14.11-8.58-21.13l-.73-1.8c-.61-1.5-1.22-3-1.79-4.53l-.25-.66c-.3-.78-.62-1.59-.79-2.38-.27-1.22-.22-2.67-.17-4.07ZM295.37,450.16c.19-.9.36-1.73.49-2.42.47-2.58.91-5.2,1.34-7.74.31-1.83.61-3.67.93-5.5.44,1.36.81,2.76,1.17,4.12.16.6.32,1.2.49,1.8.07.26.14.52.21.79.19.74.39,1.51.68,2.23.49,1.22,1.38,2.36,2.23,3.47.27.35.54.7.78,1.03.35.49.71.98,1.06,1.47.78,1.09,1.59,2.22,2.42,3.29.23.31.73,1.02,1.39,1.94,5.83,8.17,8.08,11.15,8.59,11.38.05.02.19.03.25.03h0c.24,0,.5,0,.79-.31.55-.6.99-1.38,1.41-2.14.15-.27.3-.54.46-.79.46-.77.94-1.53,1.41-2.29.51-.82,1.02-1.64,1.51-2.46.16-.26.31-.52.46-.79-.46,1.46-.96,2.92-1.51,4.34-.67,1.71-1.45,3.42-2.2,5.07-.58,1.27-1.18,2.58-1.72,3.88-.69,1.66-1.36,3.34-2.02,5.01-.52,1.32-1.05,2.65-1.59,3.97l-1.62,3.93c-1.75,4.24-3.56,8.62-5.26,13.02-2.66,6.89-4.21,10.66-4.94,12.24-1.8-11.86-3.71-23.85-5.66-35.65,0,0,0,0,0,0-.67-3.9-1.32-7.86-1.94-11.75-.07-.46-.16-.92-.26-1.4-.23-1.17-.46-2.38-.42-3.48.05-1.54.58-4.06,1.06-6.29ZM323.56,468.92c-.57-.9-1.14-1.79-1.7-2.71l.17-.44c.95-2.45,1.94-4.98,2.75-7.53.22-.7.42-1.43.62-2.16.35-1.29.71-2.62,1.23-3.81.42-.95,1.03-1.88,1.62-2.77.34-.51.68-1.03.98-1.54.69-1.17,1.36-2.36,2.03-3.54.94-1.67,1.92-3.39,2.93-5.05.26-.45.51-.9.77-1.35.23-.41.47-.83.71-1.25-.95,6.86-2.43,13.73-3.86,20.4-.71,3.31-1.45,6.73-2.11,10.11-.05.28-.21,1.1-.4,2.17-.35,1.9-.99,5.35-1.33,7.08-1.28-2.69-2.87-5.18-4.4-7.59ZM329.76,474.82c.08-.41.17-.81.24-1.2.48-2.51,1-5.01,1.52-7.52l2.17-10.84c.24-1.14.48-2.28.72-3.42.81-3.87,1.66-7.88,2.32-11.86.22-1.33.39-2.67.55-3.97.03-.2.05-.41.08-.61.48.7.93,1.42,1.37,2.12.41.66.82,1.32,1.26,1.96.45.69.92,1.37,1.39,2.05,1.18,1.72,2.39,3.49,3.38,5.31-2.11,4.34-4.33,8.72-6.48,12.96-1.73,3.42-3.47,6.83-5.16,10.26-1.06,2.14-2.11,4.28-3.14,6.43-.15.31-.29.65-.44,1.01-.12.28-.24.56-.36.84.11-1.16.35-2.36.6-3.52ZM348.34,440.48c.2-.66.4-1.33.6-1.99l3.83-12.93h9.72c-.3.84-.63,1.9-.97,3.01-.66,2.12-1.4,4.53-2.05,5.59-.42.62-9.36,8.05-12.25,10.24.34-1.32.74-2.64,1.13-3.92ZM350.21,444.87c-.62,3.03-1.92,8.25-2.99,9.54-.64.77-3.6,2.93-6.2,4.73.77-1.81,1.67-3.59,2.55-5.32.97-1.91,1.97-3.89,2.79-5.92.82-.5,1.56-1.14,2.27-1.75.53-.46,1.05-.9,1.59-1.28ZM353.17,442.42c-.11.2-.21.41-.31.61-.15.31-.35.77-.58,1.29-.26.6-.58,1.33-.91,2.01.02-.1.04-.21.06-.31.15-.84.31-1.72.56-2.54.2-.18.41-.36.62-.55.19-.17.38-.34.57-.51Z"/>
    </g>
  </g>
</svg>